<?xml version="1.0" standalone="no"?>
<!DOCTYPE svg PUBLIC "-//W3C//DTD SVG 20010904//EN"
 "http://www.w3.org/TR/2001/REC-SVG-20010904/DTD/svg10.dtd">
<svg version="1.0" xmlns="http://www.w3.org/2000/svg"
 width="1024.000000pt" height="140.000000pt" viewBox="0 0 1024.000000 140.000000"
 preserveAspectRatio="xMidYMid meet">

<g transform="translate(0.000000,140.000000) scale(0.100000,-0.100000)"
fill="#000000" stroke="none">
<path d="M80 1285 c0 -10 10 -15 30 -15 l30 0 0 -85 c0 -78 2 -85 20 -85 17 0
19 8 22 83 3 81 3 82 31 85 15 2 27 9 27 18 0 11 -17 14 -80 14 -64 0 -80 -3
-80 -15z"/>
<path d="M260 1285 c0 -8 9 -15 20 -15 11 0 20 7 20 15 0 8 -9 15 -20 15 -11
0 -20 -7 -20 -15z"/>
<path d="M430 1200 c0 -82 3 -100 15 -100 12 0 15 18 15 100 0 82 -3 100 -15
100 -12 0 -15 -18 -15 -100z"/>
<path d="M3060 1200 c0 -93 1 -100 20 -100 17 0 20 7 20 40 0 39 1 40 34 40
33 0 35 -2 38 -37 2 -30 7 -39 25 -41 20 -3 21 0 16 35 -3 21 -10 43 -15 49
-5 7 -2 16 7 24 20 16 19 54 -1 74 -11 11 -35 16 -80 16 l-64 0 0 -100z m104
64 c9 -3 16 -14 16 -24 0 -20 -19 -30 -56 -30 -18 0 -24 5 -24 23 0 13 3 27 7
30 8 9 36 9 57 1z"/>
<path d="M3550 1285 c0 -8 9 -15 20 -15 11 0 20 7 20 15 0 8 -9 15 -20 15 -11
0 -20 -7 -20 -15z"/>
<path d="M3780 1285 c0 -8 7 -15 15 -15 8 0 15 7 15 15 0 8 -7 15 -15 15 -8 0
-15 -7 -15 -15z"/>
<path d="M340 1271 c0 -11 -6 -21 -12 -24 -10 -4 -10 -7 0 -18 6 -7 12 -36 12
-65 0 -38 4 -53 16 -58 27 -10 44 -7 44 9 0 8 -4 15 -10 15 -14 0 -12 84 3 99
10 11 10 14 0 18 -7 3 -13 13 -13 24 0 12 -7 19 -20 19 -13 0 -20 -7 -20 -19z"/>
<path d="M260 1175 c0 -68 2 -75 20 -75 18 0 20 7 20 75 0 68 -2 75 -20 75
-18 0 -20 -7 -20 -75z"/>
<path d="M510 1230 c-43 -43 -13 -130 44 -130 27 0 75 34 63 46 -4 4 -18 2
-31 -6 -26 -13 -56 -8 -56 10 0 5 20 10 45 10 41 0 45 2 45 25 0 14 -9 34 -20
45 -11 11 -31 20 -45 20 -14 0 -34 -9 -45 -20z m68 -27 c2 -8 -6 -13 -22 -13
-25 0 -33 10 -19 24 10 10 36 3 41 -11z"/>
<path d="M3260 1230 c-43 -43 -13 -130 44 -130 27 0 75 34 63 46 -4 4 -18 2
-31 -6 -26 -13 -56 -8 -56 10 0 5 20 10 45 10 41 0 45 2 45 25 0 32 -33 65
-65 65 -14 0 -34 -9 -45 -20z m68 -27 c2 -8 -6 -13 -22 -13 -25 0 -33 10 -19
24 10 10 36 3 41 -11z"/>
<path d="M3390 1241 c0 -5 11 -37 24 -72 17 -46 29 -65 44 -67 17 -3 24 9 45
73 26 76 26 76 5 73 -16 -2 -25 -16 -36 -53 l-15 -50 -15 53 c-11 39 -20 52
-33 52 -11 0 -19 -4 -19 -9z"/>
<path d="M3550 1175 c0 -68 2 -75 20 -75 18 0 20 7 20 75 0 68 -2 75 -20 75
-18 0 -20 -7 -20 -75z"/>
<path d="M3634 1229 c-23 -25 -11 -50 34 -64 41 -14 49 -23 28 -31 -10 -4 -28
-1 -42 6 -27 15 -40 9 -31 -14 13 -35 98 -32 117 3 15 29 3 47 -41 60 -21 6
-39 16 -39 21 0 13 37 13 45 0 9 -15 35 -12 35 5 0 36 -76 47 -106 14z"/>
<path d="M3780 1175 c0 -60 3 -75 15 -75 12 0 15 15 15 75 0 60 -3 75 -15 75
-12 0 -15 -15 -15 -75z"/>
<path d="M3865 1225 c-14 -13 -25 -36 -25 -50 0 -33 41 -75 73 -75 41 0 71 32
71 75 0 69 -71 99 -119 50z m76 -29 c20 -43 -18 -85 -49 -54 -25 25 -8 78 25
78 7 0 18 -11 24 -24z"/>
<path d="M4010 1175 c0 -68 2 -75 20 -75 17 0 20 7 20 49 0 31 5 53 15 61 26
21 45 -5 45 -61 0 -37 4 -49 15 -49 12 0 15 14 15 63 0 36 -5 68 -12 75 -15
15 -51 15 -66 0 -9 -9 -12 -9 -12 0 0 7 -9 12 -20 12 -18 0 -20 -7 -20 -75z"/>
<path d="M4480 1131 c0 -21 -5 -31 -19 -33 -17 -3 -15 -8 16 -43 l34 -40 34
40 c24 29 29 41 19 43 -8 2 -14 16 -14 33 0 27 -3 29 -35 29 -32 0 -35 -2 -35
-29z m52 -26 c3 -22 -1 -40 -9 -47 -21 -17 -31 2 -26 45 7 47 29 49 35 2z"/>
<path d="M4621 1120 c-23 -29 -28 -40 -16 -40 10 0 15 -10 15 -30 0 -28 2 -30
40 -30 38 0 40 2 40 30 0 20 5 30 16 30 11 0 6 11 -18 40 -18 22 -36 40 -39
40 -3 0 -20 -18 -38 -40z m53 2 c7 -12 -5 -82 -14 -82 -9 0 -20 71 -13 83 6
10 21 9 27 -1z"/>
<path d="M5542 1150 c-34 -14 -44 -55 -40 -167 4 -139 3 -138 158 -138 158 0
155 -3 155 155 0 156 1 154 -143 157 -59 2 -117 -2 -130 -7z m243 -150 l0
-125 -125 0 -125 0 -3 114 c-1 63 0 121 2 128 4 11 33 13 128 11 l123 -3 0
-125z"/>
<path d="M5603 1103 c31 -2 83 -2 115 0 31 2 5 3 -58 3 -63 0 -89 -1 -57 -3z"/>
<path d="M5550 1060 c0 -5 14 -10 30 -10 17 0 30 5 30 10 0 6 -13 10 -30 10
-16 0 -30 -4 -30 -10z"/>
<path d="M5630 1060 c0 -5 16 -10 35 -10 19 0 35 5 35 10 0 6 -16 10 -35 10
-19 0 -35 -4 -35 -10z"/>
<path d="M5720 1060 c0 -5 11 -10 25 -10 14 0 25 5 25 10 0 6 -11 10 -25 10
-14 0 -25 -4 -25 -10z"/>
<path d="M5590 1020 c0 -5 14 -10 30 -10 17 0 30 5 30 10 0 6 -13 10 -30 10
-16 0 -30 -4 -30 -10z"/>
<path d="M5670 1020 c0 -5 14 -10 30 -10 17 0 30 5 30 10 0 6 -13 10 -30 10
-16 0 -30 -4 -30 -10z"/>
<path d="M5603 983 c31 -2 83 -2 115 0 31 2 5 3 -58 3 -63 0 -89 -1 -57 -3z"/>
<path d="M5550 940 c0 -5 11 -10 25 -10 14 0 25 5 25 10 0 6 -11 10 -25 10
-14 0 -25 -4 -25 -10z"/>
<path d="M5620 940 c0 -5 16 -10 35 -10 19 0 35 5 35 10 0 6 -16 10 -35 10
-19 0 -35 -4 -35 -10z"/>
<path d="M5710 940 c0 -5 14 -10 30 -10 17 0 30 5 30 10 0 6 -13 10 -30 10
-16 0 -30 -4 -30 -10z"/>
<path d="M5603 893 c31 -2 83 -2 115 0 31 2 5 3 -58 3 -63 0 -89 -1 -57 -3z"/>
<path d="M5982 1150 c-34 -14 -44 -55 -40 -167 4 -139 3 -138 158 -138 158 0
155 -3 155 155 0 156 1 154 -143 157 -59 2 -117 -2 -130 -7z m243 -150 l0
-125 -125 0 -125 0 -3 114 c-1 63 0 121 2 128 4 11 33 13 128 11 l123 -3 0
-125z"/>
<path d="M6043 1103 c31 -2 83 -2 115 0 31 2 5 3 -58 3 -63 0 -89 -1 -57 -3z"/>
<path d="M5990 1060 c0 -5 14 -10 30 -10 17 0 30 5 30 10 0 6 -13 10 -30 10
-16 0 -30 -4 -30 -10z"/>
<path d="M6043 1023 c31 -2 83 -2 115 0 31 2 5 3 -58 3 -63 0 -89 -1 -57 -3z"/>
<path d="M5990 980 c0 -5 11 -10 25 -10 14 0 25 5 25 10 0 6 -11 10 -25 10
-14 0 -25 -4 -25 -10z"/>
<path d="M6043 943 c31 -2 83 -2 115 0 31 2 5 3 -58 3 -63 0 -89 -1 -57 -3z"/>
<path d="M5990 900 c0 -5 14 -10 30 -10 17 0 30 5 30 10 0 6 -13 10 -30 10
-16 0 -30 -4 -30 -10z"/>
<path d="M6422 1150 c-34 -14 -44 -55 -40 -167 4 -139 3 -138 158 -138 158 0
155 -3 155 155 0 156 1 154 -143 157 -59 2 -117 -2 -130 -7z m243 -150 l0
-125 -125 0 -125 0 -3 114 c-1 63 0 121 2 128 4 11 33 13 128 11 l123 -3 0
-125z"/>
<path d="M6602 1077 c-24 -25 -32 -42 -32 -69 0 -19 -7 -41 -15 -48 -21 -17
-19 -47 5 -60 16 -8 24 -6 40 10 20 20 20 23 6 45 -25 37 -20 85 11 117 14 15
24 30 22 33 -3 2 -20 -10 -37 -28z m-8 -136 c3 -5 -1 -14 -8 -20 -16 -13 -32
2 -21 19 8 12 22 13 29 1z"/>
<path d="M6472 1088 c-16 -16 -15 -33 3 -48 24 -20 18 -70 -12 -102 -36 -37
-21 -49 17 -13 22 21 30 38 30 64 0 20 7 44 15 55 28 36 -21 76 -53 44z m41
-23 c1 -5 -6 -11 -15 -13 -11 -2 -18 3 -18 13 0 17 30 18 33 0z"/>
<path d="M6956 1139 c-26 -20 -26 -21 -26 -160 0 -86 4 -139 10 -139 6 0 10
51 10 134 0 109 3 138 16 150 12 13 41 16 145 16 79 0 129 4 129 10 0 6 -50
10 -129 10 -115 0 -131 -2 -155 -21z"/>
<path d="M7396 1139 c-26 -20 -26 -21 -26 -160 0 -86 4 -139 10 -139 6 0 10
51 10 134 0 165 0 166 106 166 l74 0 0 -150 c0 -93 4 -150 10 -150 6 0 10 25
10 54 l0 55 48 4 47 3 -47 2 -48 2 0 90 0 90 45 0 c25 0 45 5 45 10 0 6 -50
10 -129 10 -115 0 -131 -2 -155 -21z"/>
<path d="M7842 1150 c-12 -5 -27 -21 -32 -35 -13 -35 -13 -275 0 -275 6 0 10
25 10 55 l0 55 95 0 94 0 4 -57 3 -58 2 58 2 57 52 0 c28 0 49 2 46 5 -3 3
-70 7 -149 8 l-144 2 -3 67 c-2 57 0 70 18 88 18 18 32 20 150 20 80 0 130 4
130 10 0 13 -246 12 -278 0z"/>
<path d="M9878 1118 c-2 -19 -9 -23 -36 -23 -26 0 -37 -6 -48 -26 -12 -23 -12
-29 1 -39 8 -7 15 -20 15 -30 0 -10 -7 -23 -15 -30 -13 -10 -13 -16 -1 -39 11
-20 22 -26 48 -26 27 0 34 -4 36 -22 3 -19 10 -23 42 -23 32 0 39 4 42 23 2
18 9 22 36 22 26 0 37 6 48 26 12 23 12 29 -1 39 -8 7 -15 20 -15 30 0 10 7
23 15 30 13 10 13 16 1 39 -11 20 -22 26 -48 26 -27 0 -34 4 -36 23 -3 18 -10
22 -42 22 -32 0 -39 -4 -42 -22z m80 -80 c7 -7 12 -24 12 -38 0 -33 -17 -50
-50 -50 -33 0 -50 17 -50 50 0 14 5 31 12 38 15 15 61 15 76 0z"/>
<path d="M4970 1000 l0 -130 150 0 150 0 0 130 0 130 -150 0 -150 0 0 -130z
m90 80 c0 -28 -3 -30 -35 -30 -32 0 -35 2 -35 30 0 28 3 30 35 30 32 0 35 -2
35 -30z m100 0 c0 -28 -2 -30 -40 -30 -38 0 -40 2 -40 30 0 28 2 30 40 30 38
0 40 -2 40 -30z m90 0 c0 -28 -3 -30 -35 -30 -32 0 -35 2 -35 30 0 28 3 30 35
30 32 0 35 -2 35 -30z m-190 -80 c0 -28 -3 -30 -35 -30 -32 0 -35 2 -35 30 0
28 3 30 35 30 32 0 35 -2 35 -30z m100 0 c0 -28 -2 -30 -40 -30 -38 0 -40 2
-40 30 0 28 2 30 40 30 38 0 40 -2 40 -30z m90 0 c0 -28 -3 -30 -35 -30 -32 0
-35 2 -35 30 0 28 3 30 35 30 32 0 35 -2 35 -30z m-190 -80 c0 -28 -3 -30 -35
-30 -32 0 -35 2 -35 30 0 28 3 30 35 30 32 0 35 -2 35 -30z m100 0 c0 -28 -2
-30 -40 -30 -38 0 -40 2 -40 30 0 28 2 30 40 30 38 0 40 -2 40 -30z m90 0 c0
-28 -3 -30 -35 -30 -32 0 -35 2 -35 30 0 28 3 30 35 30 32 0 35 -2 35 -30z"/>
<path d="M7630 1050 c0 -33 4 -60 10 -60 6 0 10 11 10 25 0 16 6 25 15 25 8 0
15 5 15 10 0 6 -7 10 -15 10 -8 0 -15 7 -15 15 0 8 7 15 15 15 8 0 15 5 15 10
0 6 -11 10 -25 10 -24 0 -25 -3 -25 -60z"/>
<path d="M7000 1080 c0 -6 47 -10 120 -10 73 0 120 4 120 10 0 6 -47 10 -120
10 -73 0 -120 -4 -120 -10z"/>
<path d="M7420 1080 c0 -6 28 -10 65 -10 37 0 65 4 65 10 0 6 -28 10 -65 10
-37 0 -65 -4 -65 -10z"/>
<path d="M7870 1080 c0 -6 48 -10 125 -10 77 0 125 4 125 10 0 6 -48 10 -125
10 -77 0 -125 -4 -125 -10z"/>
<path d="M8470 1025 c0 -30 5 -55 10 -55 6 0 10 11 10 25 0 20 5 25 26 25 14
0 23 4 19 10 -3 6 -15 10 -26 10 -10 0 -19 5 -19 10 0 6 11 10 25 10 14 0 25
5 25 10 0 6 -16 10 -35 10 l-35 0 0 -55z"/>
<path d="M8860 1025 c0 -30 5 -55 10 -55 6 0 10 11 10 25 0 20 5 25 26 25 14
0 23 4 19 10 -3 6 -15 10 -26 10 -10 0 -19 5 -19 10 0 6 11 10 25 10 14 0 25
5 25 10 0 6 -16 10 -35 10 l-35 0 0 -55z"/>
<path d="M8950 1026 c0 -55 1 -56 29 -56 40 0 53 19 43 66 -7 35 -11 39 -40
42 l-32 3 0 -55z m50 24 c0 -5 -7 -10 -15 -10 -8 0 -15 5 -15 10 0 6 7 10 15
10 8 0 15 -4 15 -10z m3 -45 c1 -5 -6 -11 -15 -13 -11 -2 -18 3 -18 13 0 17
30 18 33 0z"/>
<path d="M9340 1025 l0 -56 38 3 37 3 0 50 0 50 -37 3 -38 3 0 -56z m60 25 c0
-5 -9 -10 -20 -10 -11 0 -20 5 -20 10 0 6 9 10 20 10 11 0 20 -4 20 -10z m0
-45 c0 -8 -9 -15 -20 -15 -11 0 -20 7 -20 15 0 8 9 15 20 15 11 0 20 -7 20
-15z"/>
<path d="M7005 1020 c-4 -6 37 -10 114 -10 74 0 121 4 121 10 0 6 -45 10 -114
10 -66 0 -117 -4 -121 -10z"/>
<path d="M7420 1020 c0 -6 29 -10 66 -10 41 0 63 4 59 10 -3 6 -33 10 -66 10
-33 0 -59 -4 -59 -10z"/>
<path d="M7870 1020 c0 -6 48 -10 125 -10 77 0 125 4 125 10 0 6 -48 10 -125
10 -77 0 -125 -4 -125 -10z"/>
<path d="M4457 962 c-31 -31 -37 -45 -37 -80 l0 -42 160 0 160 0 0 43 c0 37
-6 48 -38 80 -38 37 -38 37 -123 37 l-85 0 -37 -38z m223 -7 l23 -25 -123 0
-123 0 23 25 c21 22 31 25 100 25 69 0 79 -3 100 -25z m40 -70 l0 -25 -140 0
-140 0 0 25 0 25 140 0 140 0 0 -25z"/>
<path d="M4468 883 c6 -2 18 -2 25 0 6 3 1 5 -13 5 -14 0 -19 -2 -12 -5z"/>
<path d="M7000 950 c0 -6 47 -10 120 -10 73 0 120 4 120 10 0 6 -47 10 -120
10 -73 0 -120 -4 -120 -10z"/>
<path d="M7420 950 c0 -6 28 -10 65 -10 37 0 65 4 65 10 0 6 -28 10 -65 10
-37 0 -65 -4 -65 -10z"/>
<path d="M106 934 c-9 -8 -16 -28 -16 -44 0 -52 50 -78 85 -44 22 22 10 32
-13 11 -10 -10 -21 -17 -25 -17 -13 0 -37 32 -37 50 0 19 25 50 40 50 5 0 16
-7 24 -16 14 -13 16 -13 16 -1 0 28 -50 36 -74 11z"/>
<path d="M3050 890 l0 -61 37 3 c49 4 72 42 51 86 -10 21 -21 28 -51 30 l-37
3 0 -61z m68 38 c7 -7 12 -24 12 -38 0 -30 -17 -50 -42 -50 -15 0 -18 9 -18
50 0 41 3 50 18 50 10 0 23 -5 30 -12z"/>
<path d="M3252 924 c-7 -8 -8 -14 -2 -14 5 0 10 -18 10 -40 0 -22 3 -40 8 -40
7 0 8 98 0 105 -1 2 -9 -3 -16 -11z"/>
<path d="M7630 885 c0 -25 5 -45 10 -45 6 0 10 5 10 10 0 6 7 10 15 10 8 0 15
5 15 10 0 6 -7 10 -15 10 -8 0 -15 7 -15 15 0 8 7 15 15 15 8 0 15 5 15 10 0
6 -11 10 -25 10 -23 0 -25 -4 -25 -45z"/>
<path d="M8060 885 c0 -25 5 -45 10 -45 6 0 10 5 10 10 0 6 9 10 20 10 11 0
20 5 20 10 0 6 -9 10 -20 10 -11 0 -20 7 -20 15 0 8 9 15 20 15 11 0 20 5 20
10 0 6 -13 10 -30 10 -29 0 -30 -2 -30 -45z"/>
<path d="M212 908 c-7 -7 -12 -21 -12 -33 0 -46 53 -62 71 -21 21 45 -26 87
-59 54z m46 -27 c5 -34 -16 -51 -33 -27 -10 14 -11 24 -4 38 13 24 33 18 37
-11z"/>
<path d="M290 875 c0 -54 17 -60 22 -8 4 52 28 56 28 4 0 -50 18 -55 22 -6 4
47 21 45 29 -2 l6 -38 2 46 1 47 -55 1 -55 0 0 -44z"/>
<path d="M431 855 c1 -33 4 -50 6 -38 3 14 9 20 19 16 20 -7 44 15 44 42 0 28
-19 45 -48 42 -20 -1 -22 -6 -21 -62z m53 32 c8 -12 7 -21 -6 -33 -20 -20 -38
-11 -38 20 0 39 23 46 44 13z"/>
<path d="M527 914 c-14 -14 -7 -26 8 -14 12 10 19 10 27 2 8 -8 7 -13 -5 -17
-9 -3 -24 -7 -33 -10 -8 -3 -14 -13 -12 -22 2 -13 14 -18 39 -19 l35 -2 -5 42
c-5 31 -11 42 -26 44 -12 2 -24 0 -28 -4z m41 -56 c-7 -19 -38 -22 -38 -4 0
10 9 16 21 16 12 0 19 -5 17 -12z"/>
<path d="M611 871 l2 -46 6 40 c4 26 11 40 21 40 10 0 17 -14 21 -40 l7 -40
-2 45 c-1 42 -3 45 -28 46 -27 1 -28 -1 -27 -45z"/>
<path d="M695 900 c3 -14 8 -38 12 -54 4 -19 1 -31 -8 -37 -11 -7 -11 -9 3 -9
11 0 22 19 36 60 12 33 17 60 13 60 -5 0 -13 -15 -18 -32 l-10 -33 -16 35
c-12 25 -16 28 -12 10z"/>
<path d="M3177 914 c-14 -14 -7 -26 8 -14 12 10 19 10 27 2 8 -8 7 -13 -5 -17
-9 -3 -24 -7 -33 -10 -8 -3 -14 -13 -12 -22 2 -13 14 -18 39 -19 l35 -2 -5 42
c-5 31 -11 42 -26 44 -12 2 -24 0 -28 -4z m41 -56 c-7 -19 -38 -22 -38 -4 0
10 9 16 21 16 12 0 19 -5 17 -12z"/>
<path d="M3300 894 c-19 -48 28 -87 60 -49 14 17 0 21 -17 4 -6 -6 -16 -8 -22
-5 -21 13 -11 26 19 26 31 0 39 17 18 38 -20 20 -48 14 -58 -14z m48 -2 c2 -7
-6 -12 -17 -12 -21 0 -27 11 -14 24 9 9 26 2 31 -12z"/>
<path d="M7880 879 c0 -33 3 -40 16 -35 9 3 24 6 35 6 10 0 19 5 19 10 0 6
-11 10 -25 10 -16 0 -25 6 -25 15 0 10 10 15 30 15 17 0 30 5 30 10 0 6 -18
10 -40 10 l-40 0 0 -41z"/>
<path d="M7420 890 c0 -6 29 -10 66 -10 41 0 63 4 59 10 -3 6 -33 10 -66 10
-33 0 -59 -4 -59 -10z"/>
<path d="M7005 880 c4 -6 55 -10 121 -10 69 0 114 4 114 10 0 6 -47 10 -121
10 -77 0 -118 -4 -114 -10z"/>
<path d="M0 610 c0 -7 1713 -10 5120 -10 3407 0 5120 3 5120 10 0 7 -1713 10
-5120 10 -3407 0 -5120 -3 -5120 -10z"/>
<path d="M6667 413 c-11 -10 -8 -163 3 -163 5 0 10 33 12 73 l3 72 63 3 c34 2
62 7 62 12 0 11 -133 14 -143 3z"/>
<path d="M6712 368 c-14 -14 -16 -155 -3 -176 5 -9 29 -12 82 -10 l74 3 3 83
c2 53 -1 89 -9 98 -14 18 -130 19 -147 2z m136 -90 l-3 -73 -57 -3 -58 -3 0
76 0 75 60 0 61 0 -3 -72z"/>
</g>
</svg>
